<svg width="74" height="87" viewBox="0 0 74 87" fill="none" xmlns="http://www.w3.org/2000/svg">
<g filter="url(#filter0_d)">
<path d="M61.3553 32.9756C61.5887 31.7628 62.2079 30.8498 63.2129 30.2369C64.218 29.6239 65.1641 29.3728 66.0515 29.4836C66.9388 29.5944 67.5977 29.8949 68.028 30.385C68.4625 30.8421 68.6364 31.4177 68.5497 32.1118C68.3887 33.4008 67.7902 34.3667 66.7541 35.0094C65.7181 35.652 64.7564 35.918 63.869 35.8072C62.0406 35.5788 61.2027 34.635 61.3553 32.9756ZM68.4666 22.9373L68.2778 24.7768C68.1498 25.8014 67.3733 26.2247 65.9482 26.0468C65.7062 26.0165 65.4528 25.9681 65.188 25.9015C64.9502 25.8382 64.6502 25.6161 64.2881 25.2352C63.9302 24.8213 63.7905 24.3003 63.8689 23.6723L63.8998 23.4244C64.222 21.7191 64.5111 19.8418 64.767 17.7926C65.0271 15.7103 65.1827 13.6988 65.2339 11.7583C65.3161 9.78805 65.326 8.39623 65.2638 7.58282L65.1766 6.31313C65.0854 5.73109 65.0666 5.22523 65.1203 4.79554C65.2813 3.5065 65.9853 2.57059 67.2323 1.98783C68.5104 1.37538 69.7544 1.14471 70.9644 1.29582C72.9005 1.5376 73.7797 2.36912 73.6022 3.79037L73.2054 4.99962C70.9501 9.7196 69.3705 15.6988 68.4666 22.9373Z" fill="#FFF8F8"/>
</g>
<g filter="url(#filter1_d)">
<path d="M55.2123 25.1178C55.2286 24.6381 55.1463 24.185 54.9655 23.7586C54.809 23.3331 54.59 22.9504 54.3085 22.6107C54.027 22.2709 53.8929 21.9061 53.9061 21.5164C53.9408 20.497 54.6055 19.619 55.9004 18.8826C57.1962 18.1161 58.271 17.7474 59.1247 17.7764C60.0028 17.8063 60.4358 18.3613 60.4235 19.4415C60.398 20.1911 60.2912 21.5382 60.103 23.4829C59.9402 25.3985 59.8308 27.1808 59.7748 28.8299C59.6393 32.8176 59.6771 40.3282 60.2279 41.3675C60.5612 41.619 60.7193 41.9995 60.7019 42.5093C60.6683 43.4987 60.1906 44.2629 59.2687 44.8019C58.3713 45.3417 57.3615 45.5926 56.2395 45.5545C54.7516 45.5039 54.0286 44.864 54.0703 43.6347C54.0724 43.5747 54.1207 43.2312 54.2152 42.604C54.6382 40.217 55.0699 32.5422 55.1708 29.574L55.2123 25.1178ZM61.0766 10.9988C61.0389 12.1082 60.5693 12.9927 59.6678 13.6525C58.7917 14.2831 57.9512 14.5847 57.1462 14.5574C56.3413 14.53 55.7132 14.3286 55.262 13.953C54.8362 13.5484 54.634 13.0312 54.6554 12.4016C54.6941 11.2622 55.1642 10.3627 56.0658 9.70289C56.9683 9.01314 57.8099 8.68153 58.5904 8.70805C59.3953 8.7354 60.0107 8.95142 60.4365 9.35612C60.8867 9.76164 61.1001 10.3092 61.0766 10.9988Z" fill="#FFF8F8"/>
</g>
<g filter="url(#filter2_d)">
<path d="M27.291 16.7116C28.4835 16.6221 29.65 17.001 30.7904 17.8481C33.9259 20.1701 35.8178 25.654 36.4661 34.2997C36.7487 38.0691 36.3962 41.6906 35.4085 45.1642C34.9279 46.9151 34.155 48.3569 33.0896 49.4897C32.0243 50.6226 30.798 51.241 29.4107 51.345C28.0478 51.4472 26.8516 51.1609 25.822 50.486C24.819 49.8392 23.984 48.9842 23.3169 47.9211C22.6741 46.8562 22.1164 45.6194 21.6436 44.2108C20.8535 41.8333 20.3709 39.4777 20.196 37.1443C20.0187 34.7809 19.99 32.602 20.1096 30.6075C20.2293 28.6129 20.5026 26.5467 20.9297 24.4088C21.3568 22.2709 22.1161 20.4841 23.2077 19.0484C24.2993 17.6128 25.6604 16.8338 27.291 16.7116ZM28.1031 22.1561C27.3486 22.2127 26.7023 23.0584 26.164 24.6932C25.6502 26.3262 25.3003 28.1875 25.1143 30.2773C24.9527 32.3652 24.9403 34.3216 25.0772 36.1465C25.214 37.9714 25.5263 39.3619 26.0141 40.3181C26.5262 41.2725 27.123 41.7242 27.8044 41.6731C28.8509 41.5946 29.6673 40.4052 30.2535 38.1049C30.864 35.8028 31.0112 32.5427 30.6949 28.3245C30.3786 24.1064 29.5146 22.0502 28.1031 22.1561Z" fill="#FFF8F8"/>
</g>
<g filter="url(#filter3_d)">
<path d="M46.2615 19.0341C47.4565 19.0815 48.572 19.5912 49.6081 20.563C52.4578 23.2281 53.7107 28.8922 53.367 37.5554C53.2171 41.3324 52.4531 44.8899 51.075 48.2279C50.3975 49.9124 49.4649 51.2565 48.2771 52.2602C47.0893 53.2638 45.8003 53.7381 44.4103 53.683C43.0447 53.6288 41.889 53.2076 40.9432 52.4195C40.0207 51.6623 39.2888 50.7176 38.7476 49.5852C38.2307 48.4538 37.8179 47.1614 37.5092 45.7081C36.9959 43.2558 36.7856 40.8605 36.8784 38.5224C36.9724 36.1542 37.1927 33.9863 37.5395 32.0185C37.8862 30.0507 38.3939 28.0292 39.0624 25.9541C39.731 23.879 40.6895 22.1907 41.938 20.8891C43.1864 19.5876 44.6276 18.9693 46.2615 19.0341ZM46.4462 24.5358C45.6902 24.5058 44.9515 25.2721 44.23 26.8347C43.5329 28.3983 42.9726 30.2075 42.5491 32.2623C42.15 34.3181 41.9142 36.2603 41.8416 38.0888C41.7691 39.9174 41.9205 41.3345 42.2958 42.3402C42.6955 43.3468 43.2367 43.8637 43.9196 43.8908C44.9682 43.9324 45.9151 42.8441 46.7603 40.6259C47.6299 38.4086 48.1485 35.1866 48.3163 30.96C48.484 26.7333 47.8606 24.5919 46.4462 24.5358Z" fill="#FFF8F8"/>
</g>
<g filter="url(#filter4_d)">
<path d="M21.216 45.6556C21.9042 49.0669 21.4813 51.9066 19.9471 54.1748C18.407 56.4137 16.3331 57.7961 13.7254 58.3223C12.7685 58.5153 11.8446 58.564 10.9539 58.4683C10.093 58.3971 9.45648 58.2654 9.04422 58.0731L8.42584 57.7847C7.87636 57.4059 7.53636 56.8931 7.40583 56.2461C6.76828 50.9883 6.14099 46.8303 5.52393 43.7719C4.90095 40.6841 4.30983 38.2479 3.75058 36.4632C3.1854 34.6492 2.75668 33.5115 2.46443 33.0502L1.98126 32.3214C1.68881 31.9825 1.48623 31.5337 1.3735 30.975C1.1777 30.0045 1.41531 29.0843 2.08631 28.2145C2.2421 27.9994 2.48469 27.7209 2.81407 27.379C3.13752 27.0077 3.88575 26.4589 5.05878 25.7326C6.2318 25.0062 7.58387 24.4886 9.11499 24.1797C10.6461 23.8708 12.1227 24.0319 13.5447 24.6631C14.9667 25.2944 15.8528 26.4775 16.2028 28.2125C16.8021 31.1827 16.3017 33.8238 14.7017 36.1359C14.5698 36.3462 14.5247 36.5542 14.5662 36.7601C14.6018 36.9365 14.7152 37.0666 14.9064 37.1505C16.1131 37.8252 17.1462 38.6267 18.0058 39.555C18.8892 40.4785 19.5485 41.4014 19.9835 42.3236C20.6331 43.6921 21.0439 44.8028 21.216 45.6556ZM9.7406 37.091C10.4344 36.951 10.9197 36.2716 11.1967 35.0527C11.4677 33.8045 11.5083 32.7098 11.3184 31.7688C11.1285 30.8278 10.7529 30.1384 10.1916 29.7008C9.65415 29.2584 9.05051 29.1047 8.38065 29.2399C7.73471 29.3702 7.4681 29.7147 7.58083 30.2735C8.12076 32.9495 8.68536 35.131 9.27466 36.8177C9.36997 37.0433 9.52529 37.1344 9.7406 37.091ZM14.911 45.6882C14.6856 44.5707 14.2626 43.5849 13.6421 42.7308C13.0157 41.8472 12.4513 41.4561 11.9489 41.5575C11.4704 41.654 11.1467 42.209 10.9777 43.2224C10.8267 44.2016 10.8461 45.1618 11.036 46.1028C11.57 48.7495 12.447 49.9497 13.6671 49.7035C14.2891 49.578 14.7023 49.158 14.9067 48.4435C15.1291 47.6947 15.1306 46.7763 14.911 45.6882Z" fill="#FFF8F8"/>
</g>
<path d="M11.3442 56.2768C11.3841 56.038 11.703 55.6797 11.9023 55.6797C12.1615 55.6797 10.0485 53.7488 10.0087 54.0275C9.74954 55.6996 9.59007 57.4115 9.01201 58.9641C8.23462 61.0542 7.91568 63.1443 8.23461 65.2941C8.57348 67.5037 8.33428 69.5341 7.11836 71.4649C6.75956 72.0422 6.67982 72.8384 6.50042 73.5351C6.28116 74.3712 6.02203 74.9285 4.92571 74.8887C3.57025 74.829 2.55365 75.4063 2.19485 76.7997C1.79619 78.3523 1.89586 80.2035 0.301201 81.3382C0.101869 81.4775 0.261337 82.1145 0.241403 82.5126C0.600201 82.4927 1.0188 82.6121 1.33773 82.4728C1.93573 82.1941 2.45398 81.796 3.11178 81.3979C3.15164 81.2585 3.11178 80.9201 3.25131 80.6813C3.78951 79.8253 4.22804 78.5514 5.00543 78.2528C6.20142 77.795 7.43728 78.5315 8.23461 79.6661C8.69308 80.323 9.09174 80.9998 9.6698 81.9154C8.85264 82.1941 8.13512 82.4329 7.41761 82.6718L7.41736 82.6719C7.15822 82.7515 6.73962 82.8112 6.67982 82.9903C6.32103 83.906 6.04196 84.8814 5.72303 85.8568C5.8825 85.8568 6.16155 85.8767 6.46055 85.8966C6.54028 86.2549 6.62003 86.5535 6.71969 86.9118C7.31769 86.7525 7.79609 86.5933 7.71635 85.8767C7.61669 84.9013 8.19475 84.4634 9.03194 84.3041C9.74953 84.1648 10.4871 84.0653 11.2047 84.0055C12.2811 83.9259 12.8193 83.2292 12.6997 82.2936C12.5601 81.0993 12.3409 79.8651 11.8226 78.7902C11.0651 77.2177 11.105 76.7399 12.5402 75.9039C13.1382 77.4765 13.8358 79.049 14.2943 80.7012C14.7727 82.4529 15.1714 84.2842 14.075 86.016C13.9754 86.1952 13.9355 86.6331 14.0551 86.7127C14.2943 86.8919 14.8126 87.071 14.9122 86.9715C15.3707 86.4938 16.0086 85.9563 16.0484 85.3989C16.168 83.7667 16.2478 82.0747 15.9687 80.4623C15.5102 77.8149 14.5734 75.2072 15.4305 72.4801C14.5933 71.1066 15.59 70.0715 16.0285 68.8971C16.467 67.7426 16.0285 66.5283 15.1116 65.8714C14.095 65.1548 12.9986 65.2145 11.9422 66.0107C11.7429 66.17 11.4638 66.2695 10.9256 66.5482C10.8459 65.0951 10.7263 63.8808 10.7661 62.6865C10.806 61.2732 11.0253 59.8599 11.1449 58.4466C11.2047 57.73 11.2246 56.9934 11.3442 56.2768Z" fill="#FFF8F8"/>
<defs>
<filter id="filter0_d" x="61.0457" y="0.600708" width="12.8228" height="38.9116" filterUnits="userSpaceOnUse" color-interpolation-filters="sRGB">
<feFlood flood-opacity="0" result="BackgroundImageFix"/>
<feColorMatrix in="SourceAlpha" type="matrix" values="0 0 0 0 0 0 0 0 0 0 0 0 0 0 0 0 0 0 127 0"/>
<feOffset dy="3"/>
<feColorMatrix type="matrix" values="0 0 0 0 0.758333 0 0 0 0 0.758333 0 0 0 0 0.758333 0 0 0 0.4 0"/>
<feBlend mode="normal" in2="BackgroundImageFix" result="effect1_dropShadow"/>
<feBlend mode="normal" in="SourceGraphic" in2="effect1_dropShadow" result="shape"/>
</filter>
<filter id="filter1_d" x="53.093" y="8.56384" width="8.75369" height="40.1386" filterUnits="userSpaceOnUse" color-interpolation-filters="sRGB">
<feFlood flood-opacity="0" result="BackgroundImageFix"/>
<feColorMatrix in="SourceAlpha" type="matrix" values="0 0 0 0 0 0 0 0 0 0 0 0 0 0 0 0 0 0 127 0"/>
<feOffset dy="3"/>
<feColorMatrix type="matrix" values="0 0 0 0 0.758333 0 0 0 0 0.758333 0 0 0 0 0.758333 0 0 0 0.4 0"/>
<feBlend mode="normal" in2="BackgroundImageFix" result="effect1_dropShadow"/>
<feBlend mode="normal" in="SourceGraphic" in2="effect1_dropShadow" result="shape"/>
</filter>
<filter id="filter2_d" x="18.712" y="16.1257" width="18.9856" height="38.827" filterUnits="userSpaceOnUse" color-interpolation-filters="sRGB">
<feFlood flood-opacity="0" result="BackgroundImageFix"/>
<feColorMatrix in="SourceAlpha" type="matrix" values="0 0 0 0 0 0 0 0 0 0 0 0 0 0 0 0 0 0 127 0"/>
<feOffset dy="3"/>
<feColorMatrix type="matrix" values="0 0 0 0 0.758333 0 0 0 0 0.758333 0 0 0 0 0.758333 0 0 0 0.4 0"/>
<feBlend mode="normal" in2="BackgroundImageFix" result="effect1_dropShadow"/>
<feBlend mode="normal" in="SourceGraphic" in2="effect1_dropShadow" result="shape"/>
</filter>
<filter id="filter3_d" x="36.2896" y="18.693" width="17.8" height="38.3195" filterUnits="userSpaceOnUse" color-interpolation-filters="sRGB">
<feFlood flood-opacity="0" result="BackgroundImageFix"/>
<feColorMatrix in="SourceAlpha" type="matrix" values="0 0 0 0 0 0 0 0 0 0 0 0 0 0 0 0 0 0 127 0"/>
<feOffset dy="3"/>
<feColorMatrix type="matrix" values="0 0 0 0 0.758333 0 0 0 0 0.758333 0 0 0 0 0.758333 0 0 0 0.4 0"/>
<feBlend mode="normal" in2="BackgroundImageFix" result="effect1_dropShadow"/>
<feBlend mode="normal" in="SourceGraphic" in2="effect1_dropShadow" result="shape"/>
</filter>
<filter id="filter4_d" x="0.358917" y="22.6737" width="23.0197" height="39.9735" filterUnits="userSpaceOnUse" color-interpolation-filters="sRGB">
<feFlood flood-opacity="0" result="BackgroundImageFix"/>
<feColorMatrix in="SourceAlpha" type="matrix" values="0 0 0 0 0 0 0 0 0 0 0 0 0 0 0 0 0 0 127 0"/>
<feOffset dy="3"/>
<feColorMatrix type="matrix" values="0 0 0 0 0.758333 0 0 0 0 0.758333 0 0 0 0 0.758333 0 0 0 0.4 0"/>
<feBlend mode="normal" in2="BackgroundImageFix" result="effect1_dropShadow"/>
<feBlend mode="normal" in="SourceGraphic" in2="effect1_dropShadow" result="shape"/>
</filter>
</defs>
</svg>
